<svg width="978" height="717" viewBox="0 0 978 717" fill="none" xmlns="http://www.w3.org/2000/svg">
<path d="M836.871 283.176L695.449 141.754L327.754 509.451L695.449 56.901L921.723 283.176L737.876 467.024L695.449 424.598L836.871 283.176Z" fill="#848484"/>
<path d="M140.43 227.123L281.851 368.545L649.547 0.848286L281.851 453.398L55.5773 227.123L239.425 43.2748L281.851 85.7013L140.43 227.123Z" fill="#848484"/>
<path d="M695.449 369.445L695.449 424.6L836.871 283.178L809.293 255.601L695.449 369.445Z" fill="url(#paint0_linear_1_21)"/>
<path d="M281.852 140.854L281.852 85.6992L140.43 227.121L168.007 254.698L281.852 140.854Z" fill="url(#paint1_linear_1_21)"/>
<path fill-rule="evenodd" clip-rule="evenodd" d="M921.723 283.18L921.723 228.025L836.87 143.172L836.87 143.172L695.449 1.75002L695.449 56.9045L780.302 141.757L780.301 141.758L921.723 283.18Z" fill="url(#paint2_linear_1_21)"/>
<path fill-rule="evenodd" clip-rule="evenodd" d="M55.5782 227.119L55.5782 282.274L140.431 367.127L140.43 367.127L281.852 508.549L281.852 453.394L196.999 368.541L196.999 368.541L55.5782 227.119Z" fill="url(#paint3_linear_1_21)"/>
<path d="M695.45 1.74818L695.45 56.9027L327.754 509.452L695.45 1.74818Z" fill="url(#paint4_linear_1_21)"/>
<path d="M281.851 508.551L281.851 453.396L649.547 0.846597L281.851 508.551Z" fill="url(#paint5_linear_1_21)"/>
<path d="M95.488 666.184L95.232 685H44.16C37.76 685 31.872 684.061 26.496 682.184C21.12 680.307 16.4693 677.704 12.544 674.376C8.61867 671.048 5.54667 667.08 3.328 662.472C1.10933 657.949 0 653 0 647.624C0 642.333 1.10933 637.469 3.328 633.032C5.54667 628.595 8.61867 624.797 12.544 621.64C16.384 618.483 21.0347 616.008 26.496 614.216C31.9573 612.509 37.8453 611.656 44.16 611.656H95.488L95.104 630.984L44.16 630.728C41.088 630.728 38.2293 631.155 35.584 632.008C33.024 632.947 30.7627 634.184 28.8 635.72C26.9227 637.341 25.4293 639.219 24.32 641.352C23.2107 643.656 22.656 646.088 22.656 648.648C22.656 651.208 23.168 653.597 24.192 655.816C25.3013 658.035 26.8373 659.869 28.8 661.32C30.6773 662.856 32.9387 664.051 35.584 664.904C38.144 665.757 41.0027 666.184 44.16 666.184H95.488ZM106.25 630.728V611.784H167.946C172.042 611.784 176.351 612.168 180.874 612.936C185.141 613.704 189.194 615.069 193.034 617.032C196.533 618.995 199.519 621.64 201.994 624.968C204.298 628.381 205.45 632.691 205.45 637.896C205.45 640.627 205.023 643.315 204.17 645.96C203.231 648.691 201.994 650.995 200.458 652.872C198.751 655.005 196.703 656.755 194.314 658.12C192.01 659.485 189.365 660.467 186.378 661.064L207.498 685H180.874L163.722 665.672H129.034V685H106.25V647.496H169.866C172.426 647.496 175.114 646.899 177.93 645.704C180.831 644.595 182.282 642.461 182.282 639.304C182.282 636.488 181.173 634.355 178.954 632.904C176.735 631.453 173.706 630.728 169.866 630.728H106.25ZM299.284 685L268.052 645.704L237.588 685H208.916L267.284 610.76L328.212 685H299.284ZM420.144 611.912L419.888 630.984L356.784 630.728V640.328H408.24L407.984 658.248H356.784V685H334V611.656L420.144 611.912ZM537.296 611.656V630.728H496.464V685H485.712H474.832V630.728H434V611.656H485.712H537.296ZM616.004 640.968C624.964 640.968 631.833 642.632 636.612 645.96C641.22 649.288 643.524 654.323 643.524 661.064C643.524 664.819 642.969 668.147 641.86 671.048C640.58 674.205 638.703 676.723 636.228 678.6C633.753 680.648 630.511 682.227 626.5 683.336C622.404 684.445 617.625 685 612.164 685H548.548L548.036 666.184H613.828C616.644 666.184 618.649 665.757 619.844 664.904C621.039 664.136 621.636 662.771 621.636 660.808C621.636 658.845 621.039 657.48 619.844 656.712C618.564 655.944 616.559 655.56 613.828 655.56H574.02C569.241 655.56 565.145 655.048 561.732 654.024C558.148 652.915 555.289 651.464 553.156 649.672C550.852 647.88 549.188 645.661 548.164 643.016C547.055 640.456 546.5 637.597 546.5 634.44C546.5 631.112 547.097 627.997 548.292 625.096C549.401 622.365 551.279 619.976 553.924 617.928C556.484 615.965 559.727 614.429 563.652 613.32C567.663 612.211 572.441 611.656 577.988 611.656H641.604L641.732 631.112L576.196 630.728C573.551 630.728 571.588 631.112 570.308 631.88C569.028 632.563 568.388 633.885 568.388 635.848C568.388 637.725 569.028 639.048 570.308 639.816C571.588 640.584 573.551 640.968 576.196 640.968H616.004ZM704.078 610.504C721.913 610.504 735.31 613.533 744.27 619.592C753.23 625.651 757.71 635.208 757.71 648.264C757.71 661.576 753.23 671.176 744.27 677.064C735.395 683.208 721.998 686.28 704.078 686.28C686.158 686.28 672.761 683.208 663.886 677.064C655.011 671.176 650.574 661.576 650.574 648.264C650.574 635.208 655.011 625.651 663.886 619.592C672.761 613.533 686.158 610.504 704.078 610.504ZM704.078 667.208C709.625 667.208 714.446 666.952 718.542 666.44C722.553 666.013 725.753 665.075 728.142 663.624C730.531 662.344 732.323 660.467 733.518 657.992C734.627 655.517 735.182 652.275 735.182 648.264C735.182 644.424 734.627 641.267 733.518 638.792C732.409 636.317 730.617 634.397 728.142 633.032C725.838 631.752 722.638 630.856 718.542 630.344C714.958 629.832 710.137 629.576 704.078 629.576C698.105 629.576 693.326 629.832 689.742 630.344C685.561 630.856 682.318 631.752 680.014 633.032C677.625 634.397 675.875 636.317 674.766 638.792C673.657 641.267 673.102 644.424 673.102 648.264C673.102 652.275 673.657 655.517 674.766 657.992C675.875 660.467 677.625 662.344 680.014 663.624C682.489 665.075 685.731 666.013 689.742 666.44C693.838 666.952 698.617 667.208 704.078 667.208ZM851.394 611.912L851.138 630.984L788.034 630.728V640.328H839.49L839.234 658.248H788.034V685H765.25V611.656L851.394 611.912ZM968.546 611.656V630.728H927.714V685H916.962H906.082V630.728H865.25V611.656H916.962H968.546Z" fill="#909090"/>
<defs>
<linearGradient id="paint0_linear_1_21" x1="681.661" y1="410.811" x2="837" y2="256" gradientUnits="userSpaceOnUse">
<stop stop-color="#8B8B8B"/>
<stop offset="0.90622" stop-color="#353535"/>
</linearGradient>
<linearGradient id="paint1_linear_1_21" x1="295.64" y1="99.4878" x2="140.3" y2="254.298" gradientUnits="userSpaceOnUse">
<stop stop-color="#8B8B8B"/>
<stop offset="0.90622" stop-color="#353535"/>
</linearGradient>
<linearGradient id="paint2_linear_1_21" x1="949.248" y1="283.251" x2="689.123" y2="21.7509" gradientUnits="userSpaceOnUse">
<stop stop-color="#363636"/>
<stop offset="1" stop-color="#949494"/>
</linearGradient>
<linearGradient id="paint3_linear_1_21" x1="28.0525" y1="227.048" x2="288.178" y2="488.548" gradientUnits="userSpaceOnUse">
<stop stop-color="#363636"/>
<stop offset="1" stop-color="#949494"/>
</linearGradient>
<linearGradient id="paint4_linear_1_21" x1="709.5" y1="16.7484" x2="318.874" y2="518.749" gradientUnits="userSpaceOnUse">
<stop stop-color="#535353"/>
<stop offset="0.09375" stop-color="#757575"/>
<stop offset="1"/>
</linearGradient>
<linearGradient id="paint5_linear_1_21" x1="267.801" y1="493.55" x2="658.427" y2="-8.44982" gradientUnits="userSpaceOnUse">
<stop stop-color="#535353"/>
<stop offset="0.09375" stop-color="#757575"/>
<stop offset="1"/>
</linearGradient>
</defs>
</svg>
